<?xml version="1.0" standalone="no"?>
<!DOCTYPE svg PUBLIC "-//W3C//DTD SVG 20010904//EN"
 "http://www.w3.org/TR/2001/REC-SVG-20010904/DTD/svg10.dtd">
<svg version="1.0" xmlns="http://www.w3.org/2000/svg"
 width="1135.000000pt" height="1135.000000pt" viewBox="0 0 1135.000000 1135.000000"
 preserveAspectRatio="xMidYMid meet">
<metadata>
Created by potrace 1.14, written by Peter Selinger 2001-2017
</metadata>
<g transform="translate(0.000000,1135.000000) scale(0.100000,-0.100000)"
fill="#000000" stroke="none">
<path d="M2220 6850 c-7 -4 -20 -6 -28 -2 -11 4 -13 2 -7 -9 7 -11 5 -11 -10
1 -11 9 -16 10 -11 3 4 -8 2 -13 -6 -13 -10 0 -9 -3 2 -11 12 -9 11 -10 -7 -6
-13 3 -23 1 -23 -3 0 -5 -8 -16 -17 -26 -10 -10 -18 -21 -18 -26 0 -5 -7 -13
-15 -18 -10 -7 -11 -10 -2 -10 6 0 12 -7 12 -16 0 -8 -4 -13 -8 -10 -5 3 -9
-1 -9 -9 0 -8 5 -15 11 -15 6 0 4 -4 -4 -10 -11 -7 -12 -13 -3 -32 7 -13 15
-39 19 -58 6 -31 8 -32 16 -15 7 17 8 15 5 -7 -5 -30 2 -35 22 -15 10 10 11 9
6 -5 -6 -15 -2 -18 20 -18 18 0 25 -4 22 -13 -3 -9 9 -12 44 -12 27 0 49 3 49
8 0 8 50 31 63 29 4 -1 7 5 7 13 0 8 5 15 10 15 6 0 10 9 10 19 0 23 16 37 22
19 3 -7 5 13 5 45 0 35 -3 53 -8 45 -5 -7 -9 -8 -9 -2 0 6 3 14 7 18 13 13 10
44 -4 39 -8 -3 -13 -2 -12 3 1 5 1 20 -1 34 -1 23 -2 23 -10 5 -7 -17 -9 -17
-9 -3 -1 10 -10 22 -21 28 -12 7 -18 16 -13 23 4 7 -2 5 -12 -3 -17 -14 -18
-13 -12 4 6 15 3 17 -11 14 -11 -3 -26 -2 -34 3 -7 4 -20 4 -28 -1z"/>
<path d="M291 5833 l-1 -893 368 0 c281 0 371 3 381 13 11 10 13 10 7 0 -4 -7
-2 -13 3 -13 6 0 11 6 11 13 0 9 3 8 9 -2 7 -11 9 -11 14 0 4 12 7 11 16 -1 9
-13 11 -13 11 0 0 12 11 16 45 15 30 0 45 4 45 12 0 12 33 18 67 14 6 -1 15 4
19 10 5 8 3 9 -6 4 -9 -5 -11 -4 -6 4 4 7 20 10 36 8 21 -4 27 -1 26 12 -1 11
7 16 26 15 19 0 30 6 34 18 3 10 10 16 15 13 5 -4 12 0 15 8 5 13 31 27 59 31
6 0 11 7 11 14 1 6 2 17 3 23 0 5 5 8 10 4 5 -3 12 -1 16 5 4 6 11 8 16 5 5
-3 6 2 2 11 -4 12 -3 15 5 10 7 -4 12 -2 12 4 0 6 5 8 12 4 6 -4 8 -3 5 3 -4
5 4 21 16 34 12 13 21 27 19 32 -1 5 2 5 8 2 7 -4 14 2 17 14 3 12 10 21 15
21 5 0 7 4 3 9 -3 5 -1 12 4 16 6 3 9 11 7 18 -1 7 -1 9 1 4 8 -13 23 3 23 24
0 11 5 17 10 14 6 -3 11 1 11 9 1 9 3 21 4 26 1 6 3 16 4 23 2 6 7 3 12 -8 8
-18 9 -18 7 5 -1 26 6 51 23 84 8 14 7 17 -3 11 -8 -4 -7 -1 2 7 8 7 15 19 16
26 3 39 5 43 17 36 10 -6 10 -4 0 7 -17 17 -16 44 0 61 18 18 17 268 -1 291
-10 12 -10 17 -1 23 7 4 9 3 5 -4 -3 -6 -3 -13 2 -16 4 -2 9 4 9 15 1 10 -5
19 -13 19 -9 0 -14 12 -15 38 -1 53 -6 76 -18 80 -15 5 -14 32 2 32 6 1 2 6
-10 13 -17 10 -20 16 -11 30 8 15 6 19 -11 24 -15 4 -21 13 -21 35 0 17 -4 27
-10 23 -5 -3 -10 -1 -10 5 0 7 -9 24 -20 40 -11 15 -17 30 -13 34 3 3 1 6 -5
6 -7 0 -12 7 -12 16 0 8 -4 13 -9 10 -5 -3 -11 4 -14 15 -4 13 -10 18 -18 14
-7 -5 -10 -3 -7 6 5 15 -50 76 -64 72 -4 -2 -8 3 -8 10 0 7 -14 18 -31 24 -17
7 -28 17 -24 22 4 7 -4 11 -18 11 -17 0 -24 5 -23 16 0 9 -6 19 -14 21 -13 4
-13 3 0 -6 9 -7 11 -11 3 -11 -7 0 -16 7 -21 16 -5 9 -13 16 -18 16 -5 0 -8 5
-6 11 2 6 -4 5 -12 -3 -13 -10 -16 -10 -16 2 0 8 -11 15 -27 16 -14 1 -35 10
-46 20 -11 9 -17 11 -13 5 5 -9 2 -11 -8 -7 -9 3 -16 11 -16 18 0 6 -5 4 -10
-4 -8 -13 -10 -12 -10 3 0 13 -8 17 -32 17 -55 -1 -93 6 -91 17 1 5 -4 10 -12
10 -7 0 -11 -6 -8 -14 4 -9 0 -11 -11 -7 -9 3 -14 9 -11 13 2 4 -2 8 -10 8 -8
0 -12 -4 -9 -9 3 -4 0 -8 -5 -8 -6 0 -11 5 -11 10 0 6 -5 10 -11 10 -5 0 -8
-4 -5 -8 3 -5 -1 -9 -9 -9 -8 0 -12 4 -9 9 3 4 -2 8 -11 8 -9 0 -14 -4 -11 -8
3 -5 -1 -9 -9 -9 -8 0 -12 4 -9 9 3 4 0 8 -5 8 -6 0 -11 -6 -11 -12 0 -9 -3
-9 -9 1 -8 13 -12 13 -27 0 -11 -9 -15 -9 -10 -1 4 6 2 12 -3 12 -6 0 -11 -6
-11 -12 0 -9 -4 -8 -10 2 -9 13 -11 13 -20 0 -6 -10 -10 -11 -10 -2 0 6 -5 12
-11 12 -5 0 -8 -4 -5 -8 3 -5 -1 -9 -9 -9 -8 0 -12 4 -9 9 3 4 -2 8 -11 8 -9
0 -14 -4 -11 -8 2 -4 -11 -8 -29 -8 -18 0 -31 4 -29 8 3 4 -2 8 -11 8 -9 0
-14 -4 -11 -8 2 -4 -11 -8 -29 -8 -18 0 -31 4 -29 8 3 4 -2 8 -11 8 -9 0 -14
-4 -11 -8 2 -4 -11 -8 -29 -8 -18 0 -31 4 -29 8 3 4 -2 8 -11 8 -9 0 -14 -3
-11 -8 2 -4 -9 -8 -26 -9 -21 0 -26 2 -17 8 11 7 11 9 -3 9 -9 0 -19 -6 -21
-12 -4 -10 -6 -10 -6 0 -1 6 -6 12 -12 12 -5 0 -8 -4 -5 -8 3 -5 -1 -9 -9 -9
-8 0 -12 4 -9 9 8 13 -10 10 -25 -4 -11 -10 -13 -10 -7 0 4 6 3 12 -1 12 -5 0
-15 -6 -22 -12 -11 -10 -13 -10 -7 0 4 6 2 12 -3 12 -6 0 -11 -6 -11 -12 0 -9
-4 -8 -10 2 -8 12 -11 13 -19 1 -7 -11 -9 -11 -14 0 -3 8 -6 -388 -6 -878z
m294 618 c-3 -6 19 -10 54 -10 33 0 65 -2 71 -6 5 -3 10 -2 10 3 0 5 14 6 31
4 20 -3 34 0 40 9 5 8 9 9 9 3 0 -7 9 -14 21 -17 16 -4 19 -2 14 11 -5 14 -4
15 6 5 9 -9 44 -13 102 -13 68 0 86 -3 81 -12 -5 -8 0 -7 11 2 21 17 25 17 36
-1 4 -7 22 -14 40 -15 17 -2 36 -9 40 -16 5 -7 9 -9 9 -4 0 5 7 2 17 -5 9 -8
18 -13 20 -11 1 1 11 2 21 2 14 0 15 -2 2 -10 -12 -8 -9 -10 11 -10 15 0 35
-8 46 -17 10 -10 14 -15 9 -10 -18 13 -29 7 -16 -8 7 -8 17 -15 23 -15 5 0 16
-8 24 -17 9 -11 12 -12 8 -3 -4 8 18 -12 48 -45 31 -33 55 -62 55 -65 0 -3 1
-14 2 -25 1 -14 3 -16 7 -6 8 20 43 -72 38 -98 -2 -12 1 -20 8 -18 7 1 12 -12
13 -33 0 -24 5 -34 14 -32 11 3 11 0 1 -12 -9 -11 -9 -16 0 -22 8 -5 9 -3 4 6
-5 9 -4 11 3 6 8 -5 9 -13 2 -25 -5 -10 -6 -21 -3 -25 9 -9 10 -77 1 -82 -4
-3 -3 -16 2 -29 9 -23 6 -29 -11 -27 -9 1 -5 -41 5 -57 7 -10 6 -12 -4 -6 -10
6 -12 3 -8 -13 3 -11 -1 -31 -10 -43 -10 -15 -11 -20 -2 -14 8 5 11 3 9 -4 -3
-7 -9 -12 -14 -10 -10 2 -26 -59 -26 -98 1 -16 -4 -21 -14 -17 -10 4 -15 0
-15 -12 0 -11 -5 -26 -11 -34 -9 -13 -10 -12 -5 3 3 9 3 17 0 17 -7 0 -27 -53
-26 -71 0 -11 -5 -15 -18 -12 -10 3 -21 -1 -25 -8 -6 -8 -4 -10 6 -4 12 8 12
6 1 -8 -8 -9 -17 -15 -21 -14 -3 1 -13 -4 -21 -11 -48 -40 -64 -52 -75 -52 -7
0 -18 -6 -25 -14 -6 -8 -19 -12 -27 -9 -11 4 -14 2 -9 -5 7 -11 3 -13 -36 -16
-7 -1 -19 -8 -26 -16 -8 -8 -11 -9 -7 -2 3 6 1 12 -4 12 -6 0 -11 -5 -11 -11
0 -8 -6 -7 -17 2 -11 10 -14 10 -9 2 4 -8 2 -13 -6 -14 -7 -1 -42 -3 -78 -5
-36 -2 -69 -4 -75 -4 -5 -1 -27 1 -48 3 -32 4 -37 2 -33 -12 5 -14 5 -14 -7
-1 -16 20 -31 22 -62 10 -14 -5 -25 -6 -25 -1 0 4 -12 6 -27 4 -16 -3 -35 -4
-43 -4 -27 1 -115 9 -119 10 -3 0 4 8 15 16 14 11 15 14 2 9 -17 -6 -19 10 -5
33 4 6 3 14 -2 17 -12 8 -8 30 9 51 11 14 11 16 0 13 -19 -4 -19 24 0 40 13
11 13 11 -2 6 -17 -6 -19 10 -5 32 3 6 3 14 0 18 -12 12 -12 36 0 36 8 0 8 3
2 8 -16 11 -13 45 5 60 13 11 13 12 0 7 -13 -4 -16 5 -16 50 0 30 4 55 9 55 4
0 5 -5 1 -12 -5 -7 -3 -8 6 -3 11 7 10 10 -1 19 -17 13 -19 48 -4 58 7 5 6 8
-1 8 -16 0 -12 43 6 58 13 11 13 11 0 7 -12 -4 -15 6 -16 54 0 33 3 58 8 55 5
-3 5 -10 2 -16 -4 -7 -2 -8 5 -4 9 6 9 11 0 23 -15 17 -20 233 -6 233 4 0 5
-5 1 -12 -5 -7 -3 -8 6 -3 11 7 10 10 -1 19 -17 13 -19 48 -4 58 7 5 6 8 -1 8
-16 0 -12 43 6 58 13 10 13 11 -2 6 -14 -5 -16 -1 -13 16 2 12 10 29 17 39 11
14 11 14 -3 4 -14 -11 -16 -6 -15 41 0 30 3 53 7 50 4 -2 12 3 19 11 14 17 25
20 15 6z m940 -720 c3 -5 2 -12 -3 -15 -5 -3 -9 1 -9 9 0 17 3 19 12 6z"/>
<path d="M553 6385 c0 -8 4 -12 9 -9 5 3 6 10 3 15 -9 13 -12 11 -12 -6z"/>
<path d="M5570 6609 c0 -6 -6 -9 -13 -6 -8 3 -14 -1 -14 -9 0 -7 3 -11 7 -9 3
2 6 -18 5 -45 0 -34 -3 -46 -11 -39 -8 6 -10 2 -6 -17 3 -19 7 -22 13 -12 6 9
8 6 6 -9 -2 -12 -6 -26 -10 -29 -10 -10 -9 -26 1 -20 4 2 8 -16 8 -42 1 -26
-1 -41 -3 -34 -8 21 -18 13 -18 -13 0 -26 10 -34 17 -13 3 7 4 -6 4 -29 0 -36
-2 -39 -13 -25 -12 16 -13 16 -7 0 5 -16 -3 -17 -83 -16 l-88 1 -5 -29 c-3
-16 -3 -46 1 -66 3 -21 4 -38 0 -38 -3 0 -6 -20 -6 -45 l0 -45 45 -1 c25 0 67
0 94 1 40 1 48 -1 43 -14 -3 -8 -1 -18 5 -22 7 -5 8 -2 3 6 -5 8 -4 11 3 7 11
-7 11 -32 -1 -43 -10 -10 -9 -26 1 -20 4 2 7 -69 7 -159 0 -140 -2 -162 -15
-157 -13 5 -13 4 0 -12 17 -22 21 -44 9 -52 -5 -3 -9 -10 -9 -15 0 -6 4 -8 8
-5 5 3 8 -24 8 -58 -1 -52 -4 -62 -16 -58 -13 5 -13 3 1 -14 19 -24 19 -62 -1
-74 -13 -8 -12 -10 3 -10 12 0 16 -4 10 -12 -10 -17 -12 -59 -2 -52 5 2 7 -11
5 -31 -1 -19 1 -35 5 -35 3 0 7 -12 7 -26 0 -15 6 -30 13 -35 12 -7 11 -9 -1
-9 -11 -1 -10 -4 4 -15 11 -8 16 -15 12 -15 -5 0 3 -9 18 -21 14 -11 26 -27
26 -35 0 -8 7 -14 16 -14 8 0 13 -4 10 -9 -3 -5 4 -11 15 -14 14 -4 18 -10 13
-19 -5 -9 -2 -8 11 2 10 8 16 10 12 4 -8 -14 20 -27 36 -17 6 4 8 0 4 -10 -4
-11 -1 -17 9 -17 9 0 12 5 8 13 -6 10 -4 10 7 0 7 -7 21 -13 32 -13 12 0 16
-4 11 -12 -5 -9 -2 -9 9 1 14 11 17 11 17 0 0 -11 2 -11 10 1 8 12 13 13 30 2
14 -8 20 -9 20 -1 0 8 6 7 17 -2 11 -10 14 -10 9 -1 -4 6 -3 12 1 12 5 0 15
-6 22 -12 11 -10 13 -10 7 0 -5 9 4 12 33 12 24 0 41 5 41 11 0 8 5 7 16 -1
12 -11 15 -11 12 1 -2 9 4 13 17 12 11 -1 24 5 28 13 4 8 15 14 22 14 8 0 15
6 15 13 0 8 4 7 10 -3 8 -13 10 -13 10 1 0 9 10 19 23 23 17 5 19 8 8 15 -9 6
-10 10 -2 16 8 4 6 16 -9 40 -12 20 -18 40 -13 51 5 13 3 16 -10 11 -12 -4
-16 1 -17 21 -2 65 -4 70 -24 66 -11 -2 -23 -9 -28 -16 -6 -10 -8 -10 -8 0 0
10 -3 10 -15 -2 -9 -8 -26 -13 -39 -10 -14 2 -27 0 -31 -6 -3 -6 1 -7 9 -4 9
3 16 2 16 -4 0 -12 -18 -11 -39 2 -10 6 -12 5 -7 -2 5 -8 -2 -12 -19 -12 -18
0 -24 4 -19 13 6 10 4 10 -7 0 -15 -15 -33 -17 -24 -4 3 5 0 13 -6 17 -7 4 -9
3 -5 -4 3 -6 2 -13 -3 -16 -5 -3 -12 1 -15 9 -3 8 -11 14 -18 13 -7 -2 -12 3
-11 10 2 6 -4 12 -12 12 -8 0 -15 9 -15 19 0 11 -5 23 -10 26 -8 5 -8 11 0 20
7 9 6 16 -4 24 -15 12 -16 67 -2 90 4 6 4 17 -1 24 -11 18 -11 157 1 150 5 -4
6 -1 1 7 -15 25 -12 144 4 156 11 9 12 12 1 19 -9 5 -11 4 -6 -3 4 -7 3 -12
-2 -12 -5 0 -9 12 -9 26 0 18 2 22 8 13 5 -9 7 -3 5 16 -2 17 -5 30 -6 30 -4
0 -6 150 -2 163 3 9 30 12 98 11 68 -1 92 -4 87 -13 -4 -6 1 -5 10 2 9 8 29
13 44 12 15 -1 51 -2 80 -1 l51 1 1 86 c0 47 3 89 6 94 3 5 1 11 -5 15 -6 4
-8 11 -5 16 4 5 -13 9 -37 9 -24 1 -108 2 -188 3 l-144 2 -1 72 c0 39 2 70 6
67 4 -2 9 3 13 11 3 8 0 17 -6 21 -7 4 -8 3 -4 -4 4 -7 3 -12 -2 -12 -5 0 -9
12 -9 26 0 18 2 22 8 13 5 -9 7 -3 5 16 -2 17 -5 30 -6 30 -7 0 -5 82 2 92 15
19 -1 34 -33 29 -16 -2 -31 0 -35 5 -3 5 -13 5 -25 -1 -13 -8 -19 -7 -19 0 0
6 -5 8 -12 4 -16 -10 -69 -12 -95 -2 -15 5 -23 4 -23 -3z m617 -1541 c-3 -8
-6 -5 -6 6 -1 11 2 17 5 13 3 -3 4 -12 1 -19z"/>
<path d="M5535 6541 c-3 -5 -2 -12 3 -15 5 -3 9 1 9 9 0 17 -3 19 -12 6z"/>
<path d="M5813 6525 c0 -8 4 -12 9 -9 5 3 6 10 3 15 -9 13 -12 11 -12 -6z"/>
<path d="M5537 6385 c-4 -8 -3 -16 1 -19 4 -3 9 4 9 15 2 23 -3 25 -10 4z"/>
<path d="M4615 6300 c-3 -5 -1 -10 4 -10 6 0 11 5 11 10 0 6 -2 10 -4 10 -3 0
-8 -4 -11 -10z"/>
<path d="M4645 6298 c5 -11 0 -15 -17 -13 -13 1 -23 3 -23 4 0 2 -8 4 -18 6
-9 2 -15 -1 -11 -6 3 -5 -2 -9 -11 -9 -9 0 -14 4 -11 8 2 4 -4 8 -14 8 -10 0
-16 -4 -14 -8 3 -4 -5 -8 -18 -8 -17 0 -19 3 -9 9 9 6 4 8 -17 8 -17 -1 -30
-6 -29 -11 2 -10 -9 -12 -69 -15 -14 0 -22 -5 -19 -11 3 -5 1 -10 -4 -10 -6 0
-11 5 -11 10 0 6 -5 10 -11 10 -5 0 -7 -4 -4 -10 3 -5 -12 -12 -35 -16 -22 -4
-40 -12 -40 -19 0 -8 -10 -12 -25 -10 -16 1 -25 -3 -25 -11 0 -13 -15 -18 -48
-17 -10 1 -10 -2 0 -15 11 -13 10 -15 -4 -9 -13 4 -18 1 -18 -11 0 -15 -2 -15
-10 -2 -6 10 -10 11 -10 3 0 -7 -7 -13 -15 -13 -9 0 -15 -10 -15 -26 0 -14 4
-23 9 -20 11 7 21 -17 22 -52 0 -24 1 -25 9 -7 9 20 10 17 14 -25 1 -8 7 -14
14 -12 7 1 12 -7 12 -18 0 -11 5 -20 11 -20 5 0 7 -4 4 -10 -3 -5 -1 -10 5
-10 6 0 8 -4 5 -10 -3 -5 -2 -10 3 -10 6 0 13 7 16 16 3 8 11 12 16 9 6 -4 9
-1 8 6 -2 7 3 14 10 15 6 1 17 2 23 3 5 0 8 5 5 10 -3 5 1 12 10 15 8 3 13 2
9 -3 -3 -5 8 -4 25 2 20 7 25 14 17 19 -7 4 3 8 23 8 20 0 46 8 59 17 14 9 22
12 18 6 -3 -5 0 -10 8 -10 8 0 12 5 8 10 -3 5 3 6 16 2 13 -4 21 -2 21 5 0 6
-4 8 -10 5 -5 -3 -10 -2 -10 3 0 5 11 10 25 10 16 0 22 -5 18 -12 -4 -6 1 -5
10 3 14 11 20 11 34 0 11 -10 14 -10 9 -1 -4 7 -1 12 8 12 9 0 16 -4 16 -10 0
-5 5 -10 11 -10 5 0 7 5 4 10 -3 6 -1 10 4 10 6 0 11 -4 11 -10 0 -12 22 -9
33 5 5 6 6 0 2 -12 -5 -19 -2 -21 22 -18 15 2 34 -2 42 -9 11 -8 13 -8 8 1 -5
8 -1 8 18 0 21 -10 22 -13 7 -19 -14 -5 -13 -7 6 -7 12 -1 25 -8 28 -16 4 -8
13 -15 21 -15 9 0 13 -6 9 -15 -3 -10 1 -15 12 -15 13 0 17 -10 19 -37 1 -20
7 -39 13 -43 16 -10 8 -82 -12 -102 -25 -25 -25 -25 -43 -3 -9 13 -13 14 -10
4 4 -10 0 -16 -9 -16 -8 0 -13 4 -10 9 3 4 1 8 -5 8 -5 0 -12 -4 -15 -8 -6
-10 -57 -9 -73 1 -7 5 -13 5 -13 0 0 -4 -15 -8 -34 -8 -19 0 -32 3 -30 7 3 4
0 8 -5 8 -6 0 -11 -4 -11 -8 0 -4 -11 -8 -24 -8 -14 0 -22 4 -20 8 3 4 0 8 -5
8 -6 0 -11 -4 -11 -8 0 -5 -12 -8 -27 -6 -16 1 -28 3 -28 4 0 1 -8 3 -18 5 -9
2 -15 0 -12 -5 3 -4 -15 -7 -40 -6 -25 1 -45 -1 -45 -4 0 -3 -16 -4 -35 -2
-26 3 -35 1 -33 -9 2 -10 -8 -14 -34 -14 -31 1 -35 -2 -25 -14 7 -8 8 -12 2
-9 -16 9 -57 -10 -49 -23 4 -8 3 -9 -4 -5 -7 4 -12 2 -12 -4 0 -6 -4 -8 -10
-5 -5 3 -10 2 -10 -3 0 -5 -10 -12 -22 -16 -19 -5 -21 -8 -8 -16 13 -9 13 -10
0 -11 -8 -1 -18 -1 -22 0 -5 0 -8 -6 -8 -15 0 -9 -5 -12 -12 -8 -7 5 -8 3 -3
-6 5 -8 1 -18 -11 -27 -10 -8 -18 -16 -16 -18 1 -3 2 -13 2 -22 0 -12 -3 -14
-8 -6 -5 7 -11 -1 -18 -22 -6 -19 -7 -32 -3 -30 10 7 5 -22 -6 -32 -4 -4 -5
-2 0 6 6 10 4 12 -4 7 -7 -5 -10 -10 -7 -13 2 -3 1 -16 -4 -29 -5 -13 -6 -24
-2 -24 5 0 7 -18 6 -40 -1 -26 2 -38 9 -33 6 4 8 0 4 -9 -3 -9 -3 -19 1 -23 4
-4 8 -15 8 -26 1 -10 2 -28 3 -40 0 -11 6 -17 11 -14 6 4 10 -5 10 -20 0 -17
4 -24 12 -19 8 5 9 0 6 -14 -4 -12 -3 -20 1 -17 5 2 13 -7 20 -21 6 -14 15
-23 20 -20 5 3 11 -4 14 -15 3 -12 10 -18 16 -14 6 3 11 -1 11 -9 0 -9 9 -16
20 -16 12 0 20 -7 20 -17 0 -9 3 -13 7 -10 3 4 12 -1 20 -11 9 -10 12 -11 7
-2 -5 10 -1 9 14 -3 11 -11 25 -16 30 -13 6 3 13 -1 16 -10 5 -14 9 -14 23 -3
12 10 14 10 9 2 -7 -13 14 -16 121 -16 23 0 40 -3 38 -7 -2 -4 2 -7 10 -7 8 0
12 3 10 7 -2 4 26 8 62 9 43 1 73 7 84 17 9 8 24 12 33 8 9 -3 16 -1 16 6 0 6
5 8 10 5 6 -3 10 -1 10 6 0 7 3 9 6 6 8 -7 65 30 77 50 4 7 14 13 22 13 9 0
12 6 8 15 -3 9 -2 15 3 14 21 -4 35 2 29 11 -3 6 -1 10 4 10 7 0 11 -30 11
-80 l0 -80 130 0 c123 0 130 1 130 20 0 11 5 20 10 20 6 0 10 5 10 11 0 5 -4
7 -10 4 -5 -3 -10 -2 -10 4 0 5 6 12 13 14 10 4 10 6 0 6 -8 1 -13 16 -13 41
0 25 5 40 13 40 7 0 8 3 2 8 -5 4 -12 16 -13 26 -3 18 -2 19 15 5 16 -12 17
-12 6 2 -7 9 -9 20 -5 24 4 5 1 5 -5 1 -9 -5 -13 2 -13 23 0 17 5 31 10 31 6
0 10 5 10 11 0 5 -4 7 -10 4 -5 -3 -10 -2 -10 4 0 5 5 13 10 16 6 3 10 12 10
18 0 7 -4 6 -10 -3 -8 -12 -10 -10 -10 8 0 13 4 21 8 18 5 -3 9 1 9 9 0 8 -4
12 -9 9 -13 -8 -10 10 5 25 8 10 8 12 0 7 -15 -8 -14 33 1 53 8 11 8 13 -1 7
-7 -4 -13 -3 -13 1 0 5 6 15 13 22 10 11 10 13 0 7 -7 -4 -13 -3 -13 1 0 5 6
15 13 22 10 11 10 13 0 7 -7 -4 -13 -3 -13 1 0 5 6 15 13 22 10 11 10 13 0 7
-7 -4 -13 -3 -13 1 0 5 6 15 13 22 6 8 7 11 1 8 -16 -9 -18 92 -2 111 10 12
10 14 1 8 -10 -5 -13 7 -13 53 0 38 4 61 13 64 10 4 10 6 0 6 -7 1 -13 10 -13
22 0 13 4 18 13 13 9 -6 9 -4 -1 8 -7 9 -13 42 -13 77 0 34 -4 61 -9 61 -4 0
-11 7 -14 16 -6 15 -4 15 11 3 17 -13 17 -12 0 7 -10 12 -17 25 -15 30 5 19
-14 54 -25 47 -7 -4 -5 2 3 12 12 15 12 17 1 10 -11 -6 -13 -4 -8 9 4 9 3 15
-1 12 -4 -2 -16 2 -27 10 -13 10 -15 14 -4 14 8 1 3 7 -11 15 -14 8 -21 14
-17 15 4 0 2 6 -5 14 -7 8 -15 12 -17 11 -8 -8 -28 21 -23 34 4 10 1 12 -8 6
-8 -5 -18 -2 -25 8 -7 10 -24 18 -39 19 -14 1 -26 8 -26 15 0 7 -5 13 -11 13
-5 0 -7 -6 -3 -12 6 -10 5 -10 -7 -1 -8 6 -38 15 -68 19 -35 4 -48 10 -39 16
15 10 -35 3 -52 -7 -6 -4 -20 1 -31 11 -16 14 -19 15 -14 2z m218 -757 c4 -1
6 -38 5 -83 -2 -81 -19 -138 -40 -138 -6 0 -9 -3 -5 -6 8 -8 -34 -54 -44 -48
-5 3 -6 -2 -3 -10 4 -10 1 -16 -9 -16 -8 0 -20 -7 -27 -15 -7 -9 -15 -13 -18
-10 -3 2 -10 -2 -16 -11 -7 -8 -26 -16 -44 -16 -19 -1 -37 -8 -42 -17 -7 -12
-9 -12 -10 -2 0 10 -3 11 -13 2 -10 -8 -17 -7 -27 2 -10 9 -11 9 -6 0 4 -7 2
-13 -3 -13 -6 0 -11 5 -11 10 0 6 -5 10 -11 10 -5 0 -7 -4 -4 -10 4 -6 -7 -10
-24 -10 -18 0 -31 5 -32 13 0 10 -2 10 -6 0 -5 -14 -53 -18 -53 -5 0 5 -18 14
-41 21 -22 7 -43 19 -46 27 -3 7 -10 11 -17 7 -6 -4 -5 1 3 10 12 15 12 17 -3
11 -9 -3 -16 -1 -16 6 0 6 -4 9 -8 6 -5 -3 -9 0 -10 7 0 7 -3 21 -5 32 -2 11
1 26 7 34 9 12 7 12 -14 1 -21 -11 -23 -11 -14 1 7 8 15 34 18 58 3 25 12 48
18 53 10 6 10 8 1 8 -7 0 -13 5 -13 12 0 6 3 8 7 5 9 -9 34 13 27 24 -3 5 -2
9 3 8 4 -1 19 -1 33 0 20 1 22 3 10 11 -12 8 -9 10 13 10 15 0 27 6 28 13 0
10 2 10 6 0 2 -7 12 -13 21 -13 14 0 15 2 2 10 -10 6 2 10 40 12 45 2 364 1
393 -1z m-833 -145 c0 -3 -4 -8 -10 -11 -5 -3 -10 -1 -10 4 0 6 5 11 10 11 6
0 10 -2 10 -4z"/>
<path d="M8093 6298 c-3 -7 -1 -8 5 -4 7 4 12 3 12 -3 0 -5 -9 -9 -19 -8 -11
0 -18 4 -16 8 5 7 -33 5 -55 -4 -29 -11 -90 -13 -94 -2 -2 5 -5 2 -5 -8 -1
-10 -5 -16 -10 -13 -12 8 -42 -4 -37 -13 3 -4 -7 -8 -20 -9 -23 -2 -33 -7 -69
-39 -7 -7 -19 -13 -25 -13 -6 0 -8 -4 -5 -10 5 -9 -7 -14 -27 -11 -3 0 -9 -13
-13 -29 -4 -17 -13 -30 -21 -30 -8 0 -14 -7 -14 -15 0 -8 -6 -15 -13 -15 -10
0 -13 22 -12 93 2 105 -1 118 -22 110 -12 -5 -14 -3 -8 8 6 11 5 12 -6 2 -7
-7 -22 -13 -33 -13 -17 0 -18 2 -6 10 9 6 10 10 3 10 -6 0 -15 -5 -19 -11 -4
-8 -9 -7 -15 2 -6 10 -9 11 -9 2 0 -7 -9 -13 -19 -13 -11 0 -22 6 -24 13 -4
10 -6 10 -6 0 -1 -7 -7 -13 -15 -13 -8 0 -17 6 -19 13 -4 10 -6 10 -6 0 -1 -8
-16 -13 -39 -13 l-38 0 0 -920 c0 -506 3 -920 7 -920 4 0 10 6 12 13 4 9 6 8
6 -2 1 -11 4 -11 18 0 11 10 14 10 9 2 -5 -9 0 -13 14 -13 14 0 19 4 14 13 -6
9 -5 9 7 0 18 -14 58 -14 78 1 11 8 13 8 7 -1 -4 -7 -3 -13 1 -13 5 0 15 6 22
13 11 10 13 10 7 0 -5 -9 0 -13 16 -13 13 0 30 6 37 13 11 10 13 10 7 0 -4 -7
-2 -13 3 -13 14 0 13 -12 15 220 1 107 -2 200 -6 207 -5 6 -5 13 -1 16 5 3 8
64 8 136 -1 100 2 131 12 131 7 0 13 -7 13 -15 0 -8 10 -19 21 -26 16 -8 18
-13 9 -19 -8 -5 -3 -10 14 -14 14 -3 26 -13 26 -21 0 -8 9 -15 21 -15 11 0 17
-4 14 -10 -3 -5 0 -10 8 -10 8 0 20 -7 27 -15 7 -8 21 -15 31 -15 11 0 19 -6
19 -14 0 -8 6 -14 13 -13 41 1 58 -4 51 -15 -5 -8 0 -7 11 2 11 9 16 10 11 3
-5 -10 3 -13 31 -14 110 -3 139 -5 152 -13 10 -6 12 -5 7 2 -5 9 10 12 54 12
38 0 59 4 55 10 -3 6 3 11 14 11 12 1 26 3 31 4 6 1 15 3 21 4 5 0 7 7 3 14
-5 7 0 6 11 -3 11 -9 16 -10 11 -2 -5 8 0 12 13 13 34 2 39 4 48 13 5 5 3 6
-4 2 -7 -4 -13 -2 -13 3 0 6 6 11 14 11 8 0 16 4 18 8 2 4 18 18 36 31 17 12
32 29 32 36 0 9 6 12 15 9 8 -4 15 -1 15 5 0 7 11 22 25 35 14 13 25 28 25 34
0 5 7 13 16 16 8 3 13 10 9 15 -3 5 -1 12 5 16 5 3 10 17 10 30 0 13 6 28 14
32 14 8 16 12 16 34 0 5 4 8 9 4 5 -3 13 0 17 6 4 7 3 9 -4 5 -6 -3 -13 -2
-17 4 -3 5 -1 10 4 10 6 0 11 11 11 25 0 14 4 25 8 25 9 0 11 20 12 125 0 48
4 75 9 66 6 -9 9 -4 9 15 0 16 -4 34 -8 39 -5 6 -7 40 -7 77 1 37 -2 64 -7 60
-5 -3 -7 5 -4 16 4 12 3 22 -1 22 -4 0 -7 16 -6 35 0 22 -4 35 -12 35 -7 0
-13 6 -14 13 -2 30 -9 51 -19 57 -7 4 -13 19 -13 34 -1 14 -8 28 -15 31 -8 3
-10 0 -6 -7 4 -7 3 -8 -4 -4 -7 4 -12 20 -12 36 0 23 -3 28 -17 23 -12 -5 -15
-2 -10 10 4 11 1 17 -8 17 -8 0 -15 5 -15 11 0 5 -6 7 -12 3 -9 -5 -8 -2 1 9
12 15 12 17 -3 11 -10 -4 -18 0 -22 10 -3 9 -12 16 -20 16 -8 0 -14 7 -14 16
0 8 -4 12 -10 9 -5 -3 -10 1 -10 10 0 9 -4 13 -10 10 -5 -3 -10 -1 -10 5 0 7
-6 10 -14 7 -8 -3 -22 3 -31 13 -9 10 -26 17 -37 15 -15 -3 -17 -1 -9 8 8 10
5 13 -12 14 -12 1 -35 4 -52 7 -16 2 -36 5 -43 5 -8 1 -10 6 -6 14 6 10 4 10
-7 0 -15 -15 -33 -18 -25 -5 3 5 -1 9 -9 9 -8 0 -12 -4 -9 -9 3 -4 0 -8 -5 -8
-6 0 -11 4 -11 9 0 13 -39 21 -47 9z m-79 -249 c-8 -14 -21 -11 -21 5 0 8 6
12 14 9 7 -3 10 -9 7 -14z m91 -8 c-8 12 -6 12 8 0 10 -8 27 -15 40 -16 12 -1
28 -3 35 -4 8 0 10 -6 6 -13 -6 -10 -4 -10 7 0 7 6 18 12 24 12 5 0 3 -5 -5
-10 -13 -9 -13 -10 0 -11 8 -1 18 -1 22 0 4 0 10 -8 13 -19 4 -12 12 -17 22
-13 12 5 15 2 10 -10 -6 -16 4 -22 27 -18 5 1 3 -6 -5 -15 -8 -10 -9 -15 -2
-11 7 4 14 -1 18 -13 4 -11 11 -18 16 -15 5 4 9 0 9 -8 0 -8 7 -18 16 -21 8
-3 13 -10 10 -14 -8 -13 20 -83 29 -75 5 5 3 -1 -5 -11 -10 -13 -10 -17 -2
-12 9 5 12 -4 12 -33 0 -26 5 -41 13 -41 8 0 9 -2 1 -8 -15 -9 -15 -64 0 -55
8 5 8 3 0 -8 -9 -12 -12 -30 -18 -104 -1 -11 -7 -19 -12 -18 -6 1 -11 -3 -11
-10 -4 -67 -8 -84 -20 -80 -8 3 -13 2 -12 -3 3 -20 -2 -35 -10 -30 -5 3 -12
-9 -16 -27 -6 -28 -8 -30 -15 -12 -8 19 -9 19 -9 -2 -1 -13 -6 -23 -12 -23 -5
0 -8 -4 -5 -9 3 -5 -4 -11 -15 -14 -12 -3 -18 -10 -14 -16 3 -7 -2 -11 -14
-11 -13 0 -21 -7 -22 -17 0 -15 -2 -15 -9 2 -7 15 -9 16 -9 4 -1 -9 -9 -16
-18 -16 -40 0 -48 -4 -28 -13 15 -7 9 -9 -25 -8 -25 1 -51 -2 -58 -6 -7 -4
-12 -2 -12 6 0 8 -3 9 -8 3 -8 -11 -102 -14 -102 -3 0 4 -7 5 -16 1 -9 -3 -20
0 -24 7 -5 8 -21 15 -37 18 -15 2 -30 6 -33 10 -3 4 -18 15 -33 25 -15 10 -25
22 -22 27 3 5 -4 12 -16 15 -17 6 -19 9 -8 16 10 6 11 9 2 10 -28 3 -32 4 -39
12 -4 4 -1 7 6 7 10 0 10 3 -2 13 -9 6 -18 23 -20 37 -2 14 -8 24 -14 23 -6
-1 -10 8 -10 20 1 12 -5 31 -13 41 -14 17 -14 18 -1 11 13 -8 13 -7 1 8 -21
26 -22 235 -1 248 11 6 11 8 2 9 -10 0 -10 3 2 15 8 9 13 26 10 39 -2 14 1 28
7 32 7 4 9 3 5 -4 -3 -6 -3 -13 2 -16 4 -2 9 7 10 22 1 14 7 29 13 33 6 3 10
9 10 13 -3 23 0 30 9 16 8 -12 10 -9 10 11 0 19 6 28 21 32 14 4 18 10 13 18
-5 9 -2 10 10 6 13 -5 19 -1 23 13 3 11 9 17 14 14 5 -3 9 -1 9 5 0 6 7 7 17
4 11 -4 14 -3 9 5 -5 8 0 12 13 12 12 0 21 5 21 11 0 5 5 7 11 3 6 -3 15 0 20
7 6 10 9 11 9 2 0 -7 5 -13 11 -13 5 0 7 5 4 10 -8 13 18 13 31 0 13 -13 78
12 67 25 -5 5 7 -2 26 -15 19 -13 31 -17 26 -9z m582 -423 c-3 -8 -6 -5 -6 6
-1 11 2 17 5 13 3 -3 4 -12 1 -19z"/>
<path d="M10394 6299 c-4 -7 -3 -9 4 -5 6 3 13 3 15 -1 3 -5 -8 -9 -25 -10
-20 0 -26 2 -17 8 10 6 8 8 -8 6 -12 0 -19 -5 -17 -9 3 -4 -10 -8 -28 -9 -18
0 -44 -3 -58 -5 -14 -3 -35 -4 -48 -4 -12 0 -25 -7 -29 -16 -5 -13 -7 -13 -14
-2 -7 10 -9 10 -9 1 0 -7 -9 -13 -19 -13 -11 0 -21 -4 -23 -10 -1 -5 -14 -11
-28 -13 -14 -2 -25 -8 -25 -13 0 -16 -16 -34 -25 -29 -5 3 -11 -4 -15 -15 -3
-11 -15 -20 -25 -20 -11 0 -24 -9 -30 -20 -6 -11 -16 -19 -22 -17 -7 1 -12 -3
-13 -9 0 -6 -8 -18 -17 -28 -10 -10 -18 -23 -18 -31 0 -7 -7 -16 -16 -19 -8
-3 -12 -10 -9 -16 3 -5 1 -10 -4 -10 -6 0 -11 -11 -11 -25 0 -14 -6 -25 -14
-25 -7 0 -13 -8 -13 -17 0 -35 -3 -44 -13 -38 -9 6 -15 -22 -11 -53 1 -7 -5
-15 -14 -18 -8 -3 -15 -10 -15 -16 0 -5 4 -7 8 -4 5 3 9 -1 9 -9 0 -8 -4 -12
-7 -10 -4 3 -8 -10 -9 -28 0 -17 -2 -70 -4 -117 -3 -85 4 -158 18 -195 5 -16
5 -17 -4 -5 -8 11 -11 11 -11 2 0 -7 6 -15 13 -18 7 -2 14 -18 15 -35 1 -17 9
-41 17 -53 8 -12 12 -25 9 -28 -3 -4 4 -11 15 -17 12 -7 18 -17 15 -26 -4 -8
-1 -15 6 -15 6 0 9 -4 5 -9 -3 -5 4 -12 14 -16 12 -4 18 -12 14 -21 -3 -9 1
-14 13 -14 16 0 17 -2 4 -10 -13 -8 -12 -10 3 -10 9 0 17 -5 17 -11 0 -5 6 -7
13 -3 8 5 8 2 -2 -9 -12 -15 -11 -17 3 -17 9 0 16 -4 16 -10 0 -5 7 -10 16
-10 9 0 12 -5 8 -12 -5 -8 -2 -8 10 1 9 8 16 10 15 5 -4 -22 2 -33 16 -28 10
4 15 0 15 -11 0 -10 5 -13 12 -9 8 5 9 2 5 -9 -5 -13 -1 -17 16 -18 12 -1 26
-1 30 0 4 1 10 -6 13 -14 4 -8 13 -15 21 -15 9 0 11 -5 7 -12 -5 -9 -3 -9 9 1
14 11 18 11 23 -2 3 -9 15 -14 31 -12 14 1 27 -4 30 -11 3 -8 14 -14 25 -14
13 0 17 4 12 13 -6 9 -5 9 7 0 9 -7 42 -13 75 -14 32 -1 64 -6 71 -11 7 -5 14
-5 18 2 3 5 11 10 16 10 6 0 7 -4 4 -10 -3 -5 -1 -10 4 -10 6 0 11 5 11 10 0
6 23 10 51 10 27 0 48 4 45 8 -3 5 1 9 9 9 8 0 12 -4 9 -9 -3 -4 -1 -8 5 -8 5
0 11 5 13 12 2 6 14 12 25 13 12 0 28 7 36 14 9 7 30 13 47 13 17 1 33 6 37
11 3 6 1 7 -5 3 -7 -4 -12 -2 -12 3 0 6 7 11 16 11 9 0 25 9 35 21 10 12 23
18 30 13 7 -4 10 -3 7 2 -3 5 12 20 33 34 22 13 39 32 39 42 0 10 6 17 13 15
6 -1 12 5 12 13 0 18 17 40 27 34 4 -3 10 7 14 21 4 18 10 23 18 16 9 -8 12
-3 12 17 -1 16 4 26 12 25 7 -2 12 8 12 27 0 17 4 30 10 30 5 0 9 3 9 8 -4 24
2 52 11 47 6 -4 10 10 10 34 0 22 5 43 10 46 7 4 6 13 -1 27 -8 15 -8 23 1 32
8 8 10 7 5 -6 -4 -10 -3 -18 3 -18 11 0 10 17 -3 55 -6 16 -5 17 4 5 9 -12 11
-10 11 13 0 15 -6 27 -12 27 -8 0 -9 3 -3 8 6 4 11 18 13 32 2 20 1 22 -7 10
-6 -8 -11 -10 -11 -4 0 6 3 14 7 17 3 4 7 23 9 44 1 24 -1 32 -7 22 -10 -16
-10 -18 -15 46 -3 28 -5 55 -6 62 -1 7 -5 10 -10 7 -4 -3 -9 6 -9 20 -1 14 -3
29 -4 34 -2 4 -6 17 -10 29 -4 13 -11 20 -16 17 -5 -3 -9 4 -9 14 0 11 -13 34
-30 52 -16 18 -30 38 -30 45 0 6 -10 17 -22 24 -18 9 -19 10 -3 6 20 -6 20 -6
0 13 -11 11 -23 18 -27 15 -5 -2 -8 3 -8 12 0 9 -4 14 -9 10 -5 -3 -15 1 -23
8 -7 7 -22 16 -33 21 -16 6 -17 9 -5 16 13 9 13 10 0 11 -8 1 -21 1 -27 0 -8
-1 -10 5 -6 15 5 14 3 16 -11 11 -10 -4 -19 -1 -22 8 -4 8 -17 15 -31 15 -16
0 -22 4 -17 13 4 6 4 9 -1 5 -4 -4 -13 -4 -19 1 -6 5 -33 11 -59 14 -27 4 -56
12 -65 19 -12 10 -14 10 -8 1 4 -8 1 -13 -9 -13 -10 0 -13 5 -9 13 5 8 2 8 -9
-2 -14 -11 -17 -11 -17 0 0 11 -2 11 -10 -1 -6 -10 -10 -11 -10 -2 0 6 -5 12
-11 12 -5 0 -7 -6 -3 -12 6 -10 4 -10 -7 0 -16 15 -33 16 -23 1 3 -6 -5 -4
-19 6 -19 12 -27 13 -33 4z m286 -49 c0 -5 -2 -10 -4 -10 -3 0 -8 5 -11 10 -3
6 -1 10 4 10 6 0 11 -4 11 -10z m-282 -212 c-14 -11 -4 -8 36 8 11 4 17 4 14
-2 -4 -5 5 -10 19 -11 19 -1 22 1 12 8 -11 7 -9 8 6 6 11 -1 26 -6 33 -10 12
-8 51 -17 84 -20 9 -1 15 -4 12 -8 -4 -8 26 -23 39 -20 5 1 6 -3 2 -9 -3 -5
-1 -10 4 -10 6 0 11 -7 11 -15 0 -8 5 -15 10 -15 14 0 50 -37 43 -44 -4 -3 2
-6 11 -6 11 0 16 -5 13 -13 -6 -15 18 -39 29 -29 5 4 2 -1 -5 -10 -12 -15 -11
-18 3 -18 12 0 16 -10 16 -39 0 -22 5 -41 12 -43 8 -3 12 -41 13 -121 1 -100
-1 -117 -14 -117 -14 0 -14 -1 -1 -10 10 -6 11 -10 3 -10 -8 0 -13 -14 -13
-35 0 -19 -4 -35 -10 -35 -5 0 -6 -7 -3 -17 4 -11 3 -14 -5 -9 -7 4 -12 1 -12
-9 0 -10 -11 -26 -25 -36 -15 -13 -22 -26 -18 -36 5 -12 2 -15 -10 -10 -11 4
-17 1 -17 -8 0 -8 -4 -15 -10 -15 -5 0 -10 -7 -10 -15 0 -10 -7 -15 -17 -13
-11 2 -17 -2 -15 -10 1 -8 -2 -11 -7 -8 -5 4 -12 2 -16 -4 -4 -6 -11 -8 -16
-5 -5 4 -9 -2 -9 -12 -1 -17 -2 -16 -17 2 -13 16 -15 17 -10 3 7 -19 4 -19
-80 -22 -20 0 -33 -6 -33 -13 0 -15 -12 -17 -26 -3 -8 8 -60 17 -112 19 -8 1
-10 6 -6 14 5 7 0 6 -11 -3 -11 -9 -16 -10 -11 -2 4 6 2 13 -3 13 -6 1 -15 3
-21 4 -5 1 -16 3 -22 4 -9 1 -8 4 2 11 8 5 11 10 5 11 -45 4 -75 25 -67 47 2
7 0 12 -5 11 -4 -1 -15 -1 -23 0 -13 1 -13 2 0 11 13 8 12 10 -2 10 -11 0 -18
8 -18 20 0 11 -5 20 -11 20 -5 0 -7 -6 -3 -12 6 -10 4 -10 -8 0 -9 7 -15 24
-13 37 1 17 -3 25 -14 26 -10 0 -12 2 -3 6 6 2 12 9 12 14 0 6 -4 7 -10 4 -5
-3 -11 0 -11 7 -5 45 -7 58 -12 72 -4 9 -1 16 6 16 9 0 9 2 1 8 -12 7 -16 172
-4 172 3 0 6 20 5 44 0 32 3 42 13 39 7 -3 12 -2 11 3 -1 5 0 12 1 17 1 4 3
11 4 15 0 5 9 16 19 26 9 10 15 22 12 27 -4 5 -1 9 4 9 6 0 10 6 9 13 -2 6 3
11 10 10 6 -2 12 4 12 12 0 8 7 15 15 15 9 0 12 6 8 17 -4 11 -3 14 5 9 7 -4
15 -1 18 8 3 9 14 16 24 16 10 0 20 7 24 15 3 9 18 15 34 15 16 0 32 3 36 7 4
4 19 7 34 8 16 0 26 5 25 12 -2 7 4 10 13 6 13 -5 13 -8 2 -15z"/>
<path d="M2145 6291 c-6 -5 -19 -11 -29 -13 -25 -4 -29 -48 -7 -66 13 -10 14
-12 1 -10 -10 2 -15 -5 -14 -22 0 -16 5 -24 15 -22 10 1 9 -2 -4 -12 -20 -16
-19 -35 3 -54 13 -11 13 -12 0 -10 -20 4 -20 -33 0 -50 13 -10 13 -11 -3 -6
-22 8 -20 -15 3 -33 13 -11 13 -12 -3 -7 -22 8 -20 -15 3 -33 13 -12 13 -12
-1 -8 -10 4 -16 0 -16 -10 0 -8 5 -15 10 -15 5 0 4 -7 -3 -15 -9 -11 -9 -15
-1 -15 7 0 9 -5 5 -12 -14 -22 -11 -53 5 -66 9 -8 11 -11 4 -8 -17 9 -28 -15
-12 -25 12 -7 11 -9 -1 -9 -13 0 -13 -1 0 -10 13 -9 13 -10 0 -10 -13 0 -13
-1 0 -10 13 -9 13 -10 0 -10 -13 0 -13 -1 0 -10 12 -8 12 -12 2 -18 -16 -11
-12 -32 8 -50 13 -10 13 -12 0 -10 -9 2 -15 -6 -16 -19 -1 -13 4 -23 10 -23 6
0 4 -5 -4 -10 -12 -8 -12 -10 -1 -10 11 0 11 -3 1 -15 -11 -13 -10 -18 6 -30
13 -11 15 -15 4 -13 -17 3 -22 -33 -5 -44 7 -5 6 -11 -3 -16 -16 -11 -12 -32
8 -50 8 -8 10 -11 3 -8 -17 9 -28 -15 -12 -25 12 -7 12 -9 0 -9 -11 0 -9 -4 5
-15 13 -11 14 -14 4 -13 -17 3 -21 -32 -5 -47 6 -5 8 -9 6 -8 -2 2 -10 -2 -17
-8 -10 -8 -11 -16 -3 -30 5 -10 6 -19 2 -19 -4 0 2 -7 13 -15 10 -8 15 -15 9
-14 -23 3 -27 -2 -14 -18 10 -11 10 -14 2 -9 -19 11 -15 -5 5 -21 11 -8 12
-12 3 -11 -20 4 -22 -34 -3 -49 16 -12 16 -13 -1 -7 -19 7 -21 -15 -2 -28 6
-5 4 -8 -5 -8 -13 0 -13 -1 0 -10 10 -7 11 -13 5 -17 -12 -9 -14 -63 -2 -63 5
0 5 -5 2 -10 -4 -7 39 -10 131 -8 l138 3 -3 243 c-2 198 0 242 11 236 10 -6
10 -5 1 7 -8 10 -12 132 -13 429 0 228 -2 421 -2 428 -2 14 -18 17 -18 2 0 -5
-9 -10 -21 -10 -13 0 -18 4 -13 13 6 10 4 10 -7 0 -7 -7 -24 -13 -38 -13 -21
0 -23 2 -11 10 12 8 10 9 -7 7 -12 -2 -26 -6 -29 -10 -4 -4 -14 -7 -23 -7 -14
0 -14 2 -1 10 9 6 10 10 3 10 -6 0 -15 -4 -18 -10 -3 -5 -13 -10 -21 -10 -8 0
-12 5 -9 10 8 12 2 13 -10 1z"/>
<path d="M3179 6293 c-2 -7 -24 -15 -49 -18 -77 -10 -79 -11 -87 -20 -4 -4 -2
-5 6 0 10 6 12 4 6 -4 -4 -7 -18 -11 -31 -8 -16 3 -24 0 -24 -9 0 -13 -12 -18
-33 -15 -4 1 -13 -10 -19 -24 -8 -19 -14 -22 -20 -13 -6 10 -8 8 -8 -4 0 -10
-6 -17 -12 -15 -7 1 -12 -4 -10 -11 1 -8 -2 -11 -8 -7 -5 3 -10 2 -10 -4 0 -6
-7 -7 -17 -4 -10 4 -14 2 -9 -5 3 -6 -3 -16 -15 -22 -11 -7 -18 -14 -15 -17 3
-3 -5 -14 -17 -25 -12 -11 -17 -17 -11 -14 6 3 11 -1 11 -8 0 -8 -7 -12 -15
-8 -10 3 -13 1 -8 -6 4 -7 1 -12 -9 -12 -9 0 -14 -4 -11 -9 3 -4 -3 -16 -14
-26 -21 -19 -28 -51 -8 -39 7 4 8 3 4 -5 -4 -6 -12 -9 -17 -6 -5 4 -9 -8 -9
-24 0 -20 -5 -30 -12 -29 -13 3 -15 -2 -17 -57 -1 -23 -3 -27 -11 -15 -5 8
-10 10 -10 5 0 -6 6 -17 13 -24 10 -11 10 -13 0 -7 -14 7 -14 5 -16 -54 -1
-19 -6 -38 -12 -42 -6 -5 -6 -8 0 -8 6 0 11 -13 11 -30 1 -16 -2 -27 -7 -24
-13 8 -11 -10 3 -24 8 -8 9 -15 3 -20 -12 -9 -19 -36 -7 -28 5 3 9 -11 9 -32
0 -79 3 -93 16 -86 10 6 10 4 0 -7 -7 -7 -13 -18 -13 -24 0 -5 5 -3 10 5 8 13
10 12 11 -5 1 -11 1 -26 0 -32 -1 -7 3 -13 9 -13 7 0 7 -7 -1 -22 -11 -21 -11
-22 5 -9 9 8 16 10 15 5 -4 -17 13 -64 22 -58 8 4 14 -24 10 -48 0 -4 13 -18
29 -32 19 -16 25 -26 17 -29 -7 -3 -5 -6 5 -6 10 -1 20 -12 24 -26 3 -14 10
-22 15 -19 5 3 9 0 9 -5 0 -6 7 -11 16 -11 8 0 12 -4 9 -10 -3 -5 0 -10 7 -10
7 0 19 -9 26 -20 7 -11 18 -17 27 -14 10 4 15 0 15 -10 0 -9 8 -16 19 -16 11
0 23 -4 26 -10 4 -6 -1 -7 -12 -3 -10 3 -15 3 -11 -1 3 -4 12 -9 20 -10 28 -5
58 -18 58 -25 0 -4 14 -7 30 -6 19 1 30 -3 30 -12 0 -7 5 -13 11 -13 5 0 7 5
4 10 -3 6 -1 10 4 10 6 0 11 -4 11 -10 0 -5 23 -10 51 -10 31 0 48 -4 44 -10
-3 -5 -1 -10 4 -10 6 0 11 5 11 10 0 6 7 10 16 10 8 0 13 -4 10 -8 -3 -5 1 -9
9 -9 8 0 12 4 9 9 -8 12 10 10 23 -3 8 -8 13 -8 17 0 4 6 34 11 67 11 33 0 59
4 59 10 0 6 5 10 11 10 5 0 7 -6 4 -12 -4 -7 -1 -6 7 2 7 9 23 15 36 14 13 -1
26 5 29 13 4 11 8 11 21 1 10 -8 13 -9 9 -1 -5 7 4 14 23 18 19 4 28 11 23 18
-4 7 2 5 13 -3 10 -8 16 -11 12 -6 -10 11 17 37 41 39 10 0 17 6 14 13 -4 10
30 28 49 25 4 0 4 7 1 16 -4 11 -3 14 5 9 7 -4 12 -1 12 8 0 9 5 16 11 16 5 0
7 -5 3 -12 -4 -7 -3 -8 5 -4 9 6 9 12 -1 24 -7 10 -8 14 -4 10 5 -5 16 1 23
12 8 11 19 17 25 14 7 -4 8 -2 4 5 -4 6 -12 9 -17 6 -5 -4 -9 2 -9 12 0 10 -9
25 -20 33 -11 8 -20 21 -20 28 0 8 -6 12 -14 9 -13 -5 -30 24 -27 46 1 4 -4 7
-10 7 -7 0 -18 8 -26 18 -8 9 -12 12 -8 5 3 -8 -4 -15 -20 -19 -14 -3 -25 -13
-25 -21 0 -8 -4 -12 -9 -8 -6 3 -15 -4 -21 -15 -6 -11 -15 -18 -21 -15 -5 4
-9 -1 -9 -10 0 -9 -4 -14 -8 -11 -5 3 -24 -3 -43 -13 -19 -10 -42 -17 -52 -15
-10 1 -21 -4 -24 -12 -4 -12 -8 -12 -21 -2 -12 10 -14 10 -8 1 7 -13 -27 -17
-124 -15 -93 3 -110 6 -110 16 0 7 -12 13 -27 14 -15 1 -30 8 -35 15 -4 6 -8
8 -8 2 0 -5 -8 1 -16 15 -8 14 -13 17 -10 8 3 -12 1 -15 -9 -11 -8 3 -13 9
-10 13 7 12 -25 41 -36 34 -5 -3 -9 -2 -8 3 4 15 -13 43 -22 37 -5 -3 -6 1 -3
9 3 8 -2 22 -11 31 -9 8 -18 26 -20 38 -3 13 -9 24 -15 26 -5 2 -10 21 -10 43
0 21 -4 39 -10 39 -5 0 -10 5 -10 11 0 5 3 8 8 6 4 -3 7 6 7 19 0 13 -5 22
-10 20 -6 -2 -11 12 -10 34 0 21 3 36 7 34 4 -2 9 0 12 5 3 5 -1 11 -9 15 -8
3 -15 11 -15 18 0 10 2 10 9 -1 7 -10 10 -10 16 -1 4 7 1 16 -6 21 -10 7 -11
11 -2 17 6 4 13 21 15 37 1 17 8 29 13 28 6 -1 11 12 12 28 1 16 9 37 18 45 8
8 18 26 21 40 3 13 9 22 13 19 4 -2 22 14 40 35 22 27 43 41 68 46 25 5 31 9
21 16 -10 7 -8 8 7 6 11 -1 31 4 44 11 14 8 21 9 17 2 -5 -8 0 -8 17 -2 14 6
28 7 31 4 3 -3 12 0 20 6 11 9 20 9 34 2 11 -6 22 -8 25 -5 3 3 14 1 26 -5 14
-8 22 -8 26 -1 5 8 11 7 21 -1 8 -6 14 -9 14 -5 0 4 14 -1 31 -10 17 -8 28
-11 25 -5 -4 6 -2 11 3 11 6 0 11 -7 11 -16 0 -8 4 -13 9 -9 5 3 16 0 23 -7 8
-7 24 -19 37 -26 19 -11 22 -11 16 0 -3 7 0 4 9 -6 8 -10 13 -23 10 -27 -5 -8
10 -13 29 -10 4 0 7 -6 7 -14 0 -8 5 -15 10 -15 6 0 10 5 10 10 0 6 7 10 16
10 10 0 14 6 10 15 -4 10 1 15 17 16 13 0 17 3 8 6 -10 4 -8 9 10 19 15 9 19
14 9 14 -10 1 -8 4 5 9 11 5 20 14 20 22 1 8 6 13 12 12 17 -4 34 52 20 67 -9
10 -9 11 2 5 9 -5 12 -4 7 3 -4 7 -14 12 -22 12 -8 0 -14 7 -14 15 0 8 -6 15
-14 15 -8 0 -17 7 -20 16 -3 8 -10 13 -15 10 -5 -3 -11 1 -15 9 -3 8 -13 15
-21 15 -10 0 -13 5 -9 13 5 7 2 7 -10 -2 -14 -11 -16 -12 -14 -1 2 7 -8 17
-22 21 -14 4 -20 8 -15 8 6 1 -1 7 -15 15 -16 8 -29 9 -37 3 -9 -7 -13 -5 -13
6 0 12 -16 17 -65 22 -44 5 -63 11 -58 19 3 6 0 6 -8 -1 -7 -7 -21 -13 -31
-13 -10 0 -18 6 -18 13 0 8 -4 7 -10 -3 -9 -13 -10 -13 -10 0 0 13 -1 13 -10
0 -6 -10 -10 -11 -10 -2 0 6 -7 12 -16 12 -8 0 -13 -4 -10 -8 3 -5 -1 -9 -9
-9 -8 0 -12 4 -9 9 3 4 -5 8 -18 8 -18 0 -20 -2 -8 -10 9 -6 10 -10 3 -10 -6
0 -15 5 -18 10 -5 8 -11 7 -21 -1 -11 -9 -14 -8 -14 2 0 12 -2 12 -9 0 -7 -11
-9 -11 -13 0 -3 10 -6 11 -9 2z m-389 -1083 c0 -5 -2 -10 -4 -10 -3 0 -8 5
-11 10 -3 6 -1 10 4 10 6 0 11 -4 11 -10z"/>
<path d="M5813 6285 c0 -8 4 -12 9 -9 5 3 6 10 3 15 -9 13 -12 11 -12 -6z"/>
<path d="M8997 6287 c3 -5 -5 -7 -17 -5 -17 2 -24 -3 -26 -19 -2 -13 1 -23 8
-23 6 0 4 -6 -7 -13 -14 -11 -15 -16 -5 -22 9 -6 11 -4 5 5 -5 9 -4 11 4 6 6
-4 8 -13 4 -19 -11 -18 -12 -36 -2 -43 5 -3 6 -11 2 -17 -11 -18 -12 -36 -2
-43 5 -3 6 -11 2 -17 -10 -17 -11 -47 -1 -47 5 0 6 -5 3 -10 -4 -6 -12 -7 -18
-3 -9 5 -9 3 0 -8 9 -11 9 -19 2 -26 -8 -8 -7 -13 2 -18 8 -6 10 -4 4 5 -5 9
-4 11 4 6 9 -6 9 -11 0 -22 -6 -8 -8 -14 -4 -14 4 0 2 -6 -4 -14 -9 -11 -9
-16 0 -22 8 -5 9 -3 4 6 -5 9 -4 11 4 6 8 -6 9 -12 2 -20 -6 -7 -8 -16 -4 -19
3 -4 0 -7 -8 -7 -10 -1 -9 -4 4 -11 14 -8 16 -14 6 -25 -6 -8 -8 -14 -4 -14 4
0 1 -8 -6 -17 -8 -9 -9 -14 -3 -10 7 4 15 0 18 -9 3 -8 2 -13 -2 -10 -5 3 -9
-8 -9 -24 0 -18 4 -27 11 -23 6 4 5 -1 -3 -10 -7 -9 -10 -17 -6 -17 4 0 1 -8
-6 -17 -8 -9 -9 -14 -3 -10 7 4 15 0 18 -9 3 -8 2 -13 -2 -10 -5 3 -9 -8 -9
-24 0 -17 5 -30 11 -30 6 0 4 -5 -4 -10 -8 -5 -11 -10 -6 -10 5 0 2 -8 -5 -17
-8 -9 -9 -14 -3 -10 7 4 15 0 18 -9 3 -8 2 -13 -2 -10 -5 3 -9 -8 -9 -24 0
-17 5 -30 11 -30 6 0 4 -5 -4 -10 -8 -5 -10 -10 -5 -10 6 0 3 -5 -5 -10 -11
-7 -11 -10 -2 -10 7 0 10 -4 7 -10 -3 -5 0 -10 7 -10 8 0 9 -3 3 -8 -15 -10
-18 -42 -4 -42 8 0 8 -4 2 -12 -14 -17 -13 -51 1 -60 7 -5 7 -8 -2 -8 -7 0
-10 -4 -7 -10 3 -5 0 -10 -7 -10 -8 0 -6 -5 5 -11 14 -8 16 -14 6 -25 -6 -8
-8 -14 -4 -14 5 0 0 -10 -11 -22 -13 -15 -14 -18 -3 -10 14 10 18 10 22 -2 3
-8 3 -17 -1 -21 -10 -10 -9 -29 3 -37 6 -5 6 -8 -2 -8 -12 0 -12 -37 1 -58 4
-7 2 -12 -4 -12 -13 0 -9 -32 5 -42 6 -5 6 -8 -1 -8 -6 0 -10 -12 -9 -27 l1
-28 137 -3 c153 -4 141 -10 137 72 -1 29 1 36 12 30 10 -6 11 -5 1 7 -6 8 -12
33 -11 56 0 23 -3 46 -6 52 -4 6 -4 11 1 11 9 0 7 265 -2 280 -3 5 -2 10 3 10
5 0 7 11 4 25 -2 15 0 25 8 25 7 0 5 7 -6 17 -9 10 -12 19 -6 21 7 2 7 14 2
33 -5 16 -5 29 0 29 4 0 6 10 2 22 -4 16 -2 19 8 13 10 -6 11 -4 4 6 -12 19
-12 32 -1 47 5 6 6 12 1 12 -5 0 -2 5 6 10 10 6 11 10 3 10 -7 0 -13 8 -13 18
0 14 2 15 10 2 5 -8 10 -13 11 -10 0 3 3 21 6 40 2 19 9 38 15 41 6 4 7 12 3
19 -5 9 -4 11 3 6 7 -4 14 3 18 19 3 13 10 22 15 19 5 -3 13 4 17 15 4 11 10
20 15 20 4 1 13 1 20 1 8 0 7 4 -3 10 -12 8 -9 10 13 10 17 0 27 5 27 15 0 8
3 14 8 14 4 -1 14 -1 22 0 13 1 13 2 0 11 -11 7 -5 10 24 10 27 0 37 4 33 13
-3 8 3 13 18 13 14 0 21 -4 17 -10 -3 -6 1 -5 10 2 9 7 36 12 62 11 25 -2 49
1 53 5 4 4 6 52 5 107 -2 79 0 99 10 93 10 -6 11 -5 1 8 -7 8 -14 27 -15 42
-2 28 -13 34 -21 14 -4 -10 -6 -10 -6 0 -1 10 -5 10 -21 0 -16 -10 -24 -10
-41 0 -12 8 -18 9 -14 3 3 -6 0 -11 -7 -12 -7 0 -22 -3 -33 -5 -11 -2 -28 -5
-37 -6 -9 -1 -16 -6 -15 -11 1 -5 -9 -11 -23 -13 -13 -3 -27 -9 -30 -15 -4 -5
-16 -11 -28 -12 -11 0 -18 -5 -16 -9 3 -5 10 -5 16 -2 7 4 8 2 4 -4 -4 -7 -14
-12 -22 -12 -9 0 -12 -5 -8 -12 4 -7 3 -10 -1 -5 -13 12 -64 -43 -58 -62 4
-11 1 -10 -10 4 -11 15 -15 16 -15 5 2 -33 -3 -50 -13 -47 -6 1 -14 -4 -17
-12 -3 -10 0 -11 9 -5 12 7 12 5 0 -9 -7 -9 -15 -17 -16 -17 -1 0 -3 46 -3
103 -1 157 1 147 -26 147 -13 0 -27 6 -29 13 -4 10 -6 10 -6 0 -1 -7 -7 -13
-15 -13 -8 0 -17 6 -19 13 -4 10 -6 10 -6 0 -1 -8 -14 -13 -33 -13 -25 0 -29
3 -18 10 9 6 10 10 3 10 -6 0 -15 -4 -18 -10 -3 -5 -18 -10 -33 -10 -21 0 -24
2 -12 10 12 7 10 9 -7 7 -12 0 -19 -5 -16 -10z"/>
<path d="M5815 5999 c-4 -6 -5 -12 -2 -15 2 -3 7 2 10 11 7 17 1 20 -8 4z"/>
<path d="M5810 5959 c0 -5 5 -7 10 -4 6 3 10 8 10 11 0 2 -4 4 -10 4 -5 0 -10
-5 -10 -11z"/>
<path d="M5813 5885 c0 -8 4 -12 9 -9 5 3 6 10 3 15 -9 13 -12 11 -12 -6z"/>
<path d="M5535 5881 c-3 -5 -2 -12 3 -15 5 -3 9 1 9 9 0 17 -3 19 -12 6z"/>
<path d="M5535 5801 c-3 -5 -2 -12 3 -15 5 -3 9 1 9 9 0 17 -3 19 -12 6z"/>
<path d="M5819 5738 c-5 -18 -6 -38 -1 -34 7 8 12 36 6 36 -2 0 -4 -1 -5 -2z"/>
<path d="M5535 5701 c-3 -5 -2 -12 3 -15 5 -3 9 1 9 9 0 17 -3 19 -12 6z"/>
<path d="M8690 5670 c0 -5 5 -10 11 -10 5 0 7 5 4 10 -3 6 -8 10 -11 10 -2 0
-4 -4 -4 -10z"/>
<path d="M5536 5657 c3 -10 9 -15 12 -12 3 3 0 11 -7 18 -10 9 -11 8 -5 -6z"/>
<path d="M5819 5578 c-5 -18 -6 -38 -1 -34 7 8 12 36 6 36 -2 0 -4 -1 -5 -2z"/>
<path d="M6806 5542 c1 -14 8 -29 16 -33 8 -5 5 -8 -10 -6 -12 0 -22 5 -22 9
0 4 -12 8 -27 9 -25 0 -26 1 -8 9 16 7 14 9 -12 7 -17 0 -30 -4 -27 -8 2 -4 0
-10 -6 -14 -18 -11 -11 -31 15 -45 14 -7 23 -15 20 -18 -2 -3 -10 0 -18 6 -19
16 -57 11 -58 -8 0 -10 -3 -9 -8 4 -7 19 -8 19 -14 -3 -3 -13 -10 -21 -14 -18
-5 3 -10 -13 -12 -36 -1 -23 -7 -45 -14 -49 -9 -6 -8 -8 2 -8 8 0 11 -7 8 -19
-3 -13 3 -22 19 -30 18 -8 24 -8 24 1 0 6 2 9 5 6 9 -9 -20 -58 -32 -53 -7 2
-13 -2 -13 -11 0 -8 7 -17 15 -20 8 -4 15 -12 15 -19 0 -8 9 -10 25 -7 17 3
25 0 26 -9 3 -31 5 -36 23 -55 14 -13 21 -15 24 -6 2 7 9 9 15 5 7 -4 5 2 -3
13 -8 10 -10 16 -6 12 5 -4 16 -2 24 5 13 9 14 9 8 0 -5 -9 -2 -11 8 -7 9 3
14 10 11 14 -6 9 21 40 35 40 11 0 27 -51 22 -73 -2 -9 -8 -14 -14 -11 -7 5
-8 2 -4 -5 5 -7 14 -10 22 -7 8 3 14 0 14 -7 0 -8 4 -7 9 3 6 8 8 17 5 21 -2
4 0 10 6 14 7 4 7 12 0 25 -12 22 6 32 60 34 22 1 34 6 33 14 -2 6 2 12 7 12
6 0 9 5 8 12 -2 6 8 15 22 19 14 4 18 8 10 8 -11 1 -12 3 -3 9 7 4 11 17 10
29 0 12 -5 19 -10 16 -4 -3 -6 -11 -3 -19 4 -11 2 -12 -14 -1 -11 6 -20 19
-20 27 -1 24 -27 54 -33 38 -4 -11 -6 -11 -6 0 -1 7 -5 11 -9 8 -5 -3 -9 1 -9
9 0 8 4 12 8 9 4 -2 12 4 18 13 10 17 10 17 11 0 0 -10 4 -16 9 -13 5 3 8 -2
7 -12 0 -10 5 -16 13 -14 9 2 11 -3 7 -15 -6 -15 -5 -15 14 2 28 26 25 45 -10
52 -16 3 -30 10 -30 15 0 5 4 7 8 4 5 -3 8 5 7 16 -1 20 -32 40 -47 32 -13 -8
-19 16 -8 36 8 16 8 20 -2 18 -7 -2 -12 3 -10 10 1 6 -6 12 -17 12 -13 0 -18
-7 -17 -27 2 -33 -12 -56 -27 -46 -7 4 -8 0 -3 -12 5 -15 4 -16 -8 -6 -12 10
-14 8 -9 -11 4 -19 3 -20 -6 -8 -9 12 -11 9 -7 -12 5 -32 1 -34 -21 -12 -20
19 -24 84 -5 84 7 0 15 7 18 15 4 8 10 12 15 9 5 -3 8 6 7 20 -1 15 -7 26 -13
27 -5 0 -17 2 -26 4 -12 2 -15 -4 -13 -23z m-69 -102 c15 0 23 -5 21 -12 -5
-16 -48 -24 -48 -10 0 6 -2 16 -3 24 -2 7 -2 10 0 6 3 -5 16 -8 30 -8z m-1
-44 c18 5 18 5 1 -6 -9 -6 -22 -8 -27 -5 -9 6 -14 -8 -11 -27 0 -5 -6 -8 -14
-8 -9 0 -15 9 -15 25 0 19 4 23 18 18 15 -6 16 -5 2 13 -14 18 -14 18 6 1 13
-10 29 -15 40 -11z m154 4 c-8 -5 -10 -10 -4 -10 6 0 11 -12 11 -27 0 -16 -2
-22 -4 -15 -3 6 -9 12 -14 12 -6 0 -7 -6 -3 -12 5 -8 0 -7 -11 2 -17 14 -18
13 -12 -12 4 -16 3 -30 -5 -34 -7 -4 -8 -3 -4 4 4 7 2 12 -3 12 -6 0 -11 -7
-11 -15 0 -9 -6 -12 -15 -9 -8 4 -12 11 -9 18 3 6 -2 2 -10 -8 -9 -11 -16 -18
-17 -15 -11 62 -13 60 37 63 26 1 56 26 51 41 -3 6 5 12 16 13 17 1 19 -1 7
-8z m-233 -25 c0 -8 -4 -12 -9 -9 -5 3 -6 10 -3 15 9 13 12 11 12 -6z m113
-60 c0 -12 -19 -12 -23 0 -4 9 -1 12 9 8 7 -3 14 -7 14 -8z m168 -12 c-2 -11
2 -17 11 -15 12 3 12 0 1 -12 -10 -13 -10 -16 0 -16 8 0 10 -3 6 -7 -8 -8 -12
-9 -40 -12 -8 0 -17 -8 -20 -17 -4 -11 -2 -15 8 -11 9 4 13 1 10 -6 -2 -7 -16
-13 -30 -13 -14 -1 -23 0 -20 3 3 3 1 14 -4 23 -8 15 -4 19 25 24 19 4 37 11
40 15 3 5 -5 7 -17 3 -23 -6 -20 7 11 40 21 22 22 22 19 1z m-182 -23 c-7 -3
-12 -13 -11 -22 2 -11 -3 -16 -15 -15 -16 1 -17 4 -7 16 10 12 9 14 -5 8 -21
-8 -20 12 2 29 10 9 19 9 32 0 14 -8 15 -12 4 -16z m12 -22 c-2 -7 8 -14 22
-17 23 -3 24 -4 5 -12 -17 -6 -17 -8 -2 -8 19 -1 21 -9 8 -30 -6 -9 -11 -10
-15 -2 -4 6 -11 9 -16 6 -5 -3 -12 0 -16 6 -4 8 -3 9 4 5 7 -4 12 -2 12 3 0 6
-4 11 -8 11 -7 0 -8 31 -3 48 3 8 11 0 9 -10z"/>
<path d="M5535 5461 c-3 -5 -2 -12 3 -15 5 -3 9 1 9 9 0 17 -3 19 -12 6z"/>
<path d="M5813 5359 c-2 -23 3 -25 10 -4 4 8 3 16 -1 19 -4 3 -9 -4 -9 -15z"/>
<path d="M8620 5269 c0 -5 5 -7 10 -4 6 3 10 8 10 11 0 2 -4 4 -10 4 -5 0 -10
-5 -10 -11z"/>
<path d="M5610 5050 c0 -5 5 -10 11 -10 5 0 7 5 4 10 -3 6 -8 10 -11 10 -2 0
-4 -4 -4 -10z"/>
</g>
</svg>
